<?xml version="1.0" encoding="UTF-8" standalone="no"?>
<svg
   id="Layer_1"
   data-name="Layer 1"
   viewBox="0 0 2500 2500"
   version="1.1"
   sodipodi:docname="RMLogo.svg"
   width="2500"
   height="2500"
   inkscape:version="1.3 (0e150ed6c4, 2023-07-21)"
   xmlns:inkscape="http://www.inkscape.org/namespaces/inkscape"
   xmlns:sodipodi="http://sodipodi.sourceforge.net/DTD/sodipodi-0.dtd"
   xmlns="http://www.w3.org/2000/svg"
   xmlns:svg="http://www.w3.org/2000/svg">
  <sodipodi:namedview
     id="namedview4"
     pagecolor="#ffffff"
     bordercolor="#000000"
     borderopacity="0.25"
     inkscape:showpageshadow="2"
     inkscape:pageopacity="0.0"
     inkscape:pagecheckerboard="0"
     inkscape:deskcolor="#d1d1d1"
     inkscape:zoom="0.142"
     inkscape:cx="2500"
     inkscape:cy="1496.4789"
     inkscape:window-width="2560"
     inkscape:window-height="1369"
     inkscape:window-x="-8"
     inkscape:window-y="-8"
     inkscape:window-maximized="1"
     inkscape:current-layer="Layer_1" />
  <defs
     id="defs2">
    <style
       id="style1">&#10;      .cls-1 {&#10;        fill: url(#linear-gradient);&#10;        stroke-width: 0px;&#10;      }&#10;&#10;      .cls-2 {&#10;        fill: #da1c5c;&#10;      }&#10;&#10;      .cls-2, .cls-3 {&#10;        stroke: #00aeef;&#10;        stroke-miterlimit: 10;&#10;      }&#10;&#10;      .cls-3 {&#10;        fill: #009444;&#10;      }&#10;    </style>
    <linearGradient
       id="linear-gradient"
       x1="2500"
       y1="0"
       x2="2500"
       y2="3000"
       gradientUnits="userSpaceOnUse"
       gradientTransform="matrix(0.45352113,0,0,0.76056337,1295.7746,359.15493)">
      <stop
         offset="0"
         stop-color="#fff"
         id="stop1" />
      <stop
         offset="1"
         stop-color="#e6e6e6"
         id="stop2" />
    </linearGradient>
  </defs>
  <ellipse
     style="fill:#ffffff;fill-opacity:1;stroke:#1e0b0b;stroke-width:0;stroke-dasharray:none"
     id="path1"
     cx="1242.958"
     cy="1257.0424"
     rx="1242.9578"
     ry="1249.9998" />
  <polygon
     class="cls-2"
     points="2110.7,1649.2 1996.73,1652.57 2142.02,1909.64 2258.24,1909.64 "
     id="polygon2"
     transform="translate(-1174.8732,-250.56338)"
     style="stroke-width:0;stroke-dasharray:none" />
  <polygon
     class="cls-3"
     points="2500.75,1433.51 2450.43,1348.55 2413.55,1284.85 2413.55,1909.64 2514.14,1909.64 2514.14,1459.21 2507.44,1449.14 "
     id="polygon3"
     transform="translate(-1174.8732,-250.56338)"
     style="stroke-width:0;stroke-dasharray:none" />
  <path
     class="cls-3"
     d="m 1813.1468,840.96662 -83.78,143.04 -43.63,78.20998 -50.27,86.08 -51.39,88.28 -144.22,-250.32998 -84.91,-146.42 h -114.03 l 98.34,172.10998 100.59,173.24 38.01,67.08 49.2,84.91 7.82,14.56 50.27,84.91 58.14,-99.47 50.27,-88.28 35.81,-63.71 100.54,-173.24 v 1019.24 c -25.8,19 -52.62,36.72 -80.3,53.16 -144.54,85.65 -313.12,134.91 -493,134.91 -534.75004,0 -969.82004,-435.07 -969.82004,-969.83 0,-78.75 9.42,-155.36 27.25,-228.7 h -106.43 c -16.06,73.72 -24.52,150.22 -24.52,228.7 0,591.98 481.54,1073.52 1073.52004,1073.52 177.57,0 345.3,-43.36 493,-120.08 27.46,-14.24 54.28,-29.66 80.3,-46.2 34.96,-22.11 68.52,-46.25 100.59,-72.16 V 839.82662 h -117.35 v 1.12 z"
     id="path3"
     style="stroke-width:0;stroke-dasharray:none" />
  <path
     class="cls-2"
     d="m 2010.7968,2012.6766 c 197.06,-194.7 319.33,-464.94 319.33,-763.24 0,-591.92998 -481.59,-1073.51998 -1073.52,-1073.51998 -415.59004,0 -776.78004,237.37 -955.05004,583.63 -13.49,26.12 -25.91,52.95 -37.26,80.3 -13.54,32.71 -25.54,66.28 -35.87,100.59 h 631.38 c 71.58,0 128.54,57.01 128.54,128.53998 v 2.2 c 0,70.45 -56.96,128.54 -128.54,128.54 h -277.15 v 459.38 h 100.59 v -358.79 h 176.56 c 125.22,0 229.13004,-103.91 229.13004,-229.13 v -2.2 c 0,-126.28998 -103.91004,-229.12998 -229.13004,-229.12998 h -482.24 c 12.9,-27.46 26.98,-54.28 42.29,-80.3 168.63,-286.89 480.58,-479.88 836.74004,-479.88 534.75,0 969.77,435.02 969.77,969.76998 0,230.46 -80.78,442.46 -215.58,609 v 154.23 z"
     id="path4"
     style="stroke-width:0;stroke-dasharray:none" />
</svg>
